<?xml version="1.0" encoding="UTF-8"?>
<svg width="30px" height="28px" viewBox="0 0 30 28" version="1.1" xmlns="http://www.w3.org/2000/svg" xmlns:xlink="http://www.w3.org/1999/xlink">
    <defs>
        <polygon id="path-1" points="0 0.166018028 29.5085713 0.166018028 29.5085713 27.3913043 0 27.3913043"></polygon>
    </defs>
    <g id="Symbols" stroke="none" stroke-width="1" fill="none" fill-rule="evenodd">
        <g id="navi" transform="translate(-24.000000, -14.000000)">
            <g id="编组">
                <g>
                    <g transform="translate(24.000000, 14.000000)">
                        <g>
                            <mask id="mask-2" fill="white">
                                <use xlink:href="#path-1"></use>
                            </mask>
                            <g id="Clip-18"></g>
                            <path d="M16.0914047,8.80069247 C16.0864591,8.85013043 16.0805243,8.9012386 16.0373322,8.90391092 C15.9845786,8.90725133 15.9529264,8.82374125 15.9080859,8.69747402 C15.7959844,8.37846554 15.6980605,8.05578261 15.5839808,7.73710817 C15.4613286,7.39404878 15.3429627,7.04831707 15.1926149,6.7136087 C15.0191873,6.32712407 14.8615859,6.27167338 14.478133,6.46808908 C13.9680714,6.72930859 13.477133,7.01925557 12.9931185,7.31922375 C12.7187996,7.48925027 12.4438214,7.6809894 12.1586221,7.83264369 C12.1190569,7.85335419 12.1365315,7.84466914 12.0933395,7.86103712 C12.0696004,7.8700562 12.0105822,7.85869883 12.0270678,7.79255885 C12.0715786,7.65359809 12.0920207,7.58244751 12.1467525,7.45384199 C12.6917634,6.17146129 13.3521728,4.94352916 14.1431475,3.78273913 C14.3297634,3.50849205 14.5457236,3.24760657 14.7811366,3.00876776 C14.9858866,2.80066066 15.2381149,2.86212407 15.3366982,3.13870944 C15.4913322,3.57162566 15.6199192,4.01523118 15.704325,4.45983881 C15.952267,5.76660445 16.0834917,7.01524708 16.1075605,8.21812619 C16.1105279,8.35474867 16.1055822,8.66072959 16.0914047,8.80069247 M29.3483902,25.5457985 L15.4877054,0.791074231 C15.0214953,-0.0413541888 13.8378359,-0.0430243902 13.3696475,0.788401909 L10.3171909,6.20853977 L12.8210098,10.6800032 C13.2618322,9.67788229 13.5569228,8.93030011 13.8460786,7.85368823 C13.9552127,7.62520467 14.2146946,7.51396925 14.4520859,7.59447296 C14.6898069,7.67464263 14.8315822,7.92149841 14.7827851,8.17035843 C14.4158178,9.50752174 13.9990641,10.4966151 13.4006402,11.7151941 L20.2889446,24.0178982 C20.7498793,24.8406394 20.1629953,25.8611326 19.2292562,25.8611326 L9.74679239,25.8611326 L9.74679239,16.1592662 L9.7471221,16.1592662 L9.7471221,17.4376384 C11.0699192,15.9805546 12.370296,14.1313075 13.4487779,11.8017105 L12.8414518,10.7164136 C11.902767,12.9130626 10.752738,14.706859 9.52819457,16.1592662 L6.93502428,16.1592662 L6.93502428,25.8611326 L6.2792308,25.8611326 L6.2792308,19.8587625 L3.46779239,19.8587625 L3.46779239,25.8611326 L2.8116692,25.8611326 L2.8116692,22.0781262 L-9.89130435e-05,22.0781262 L-9.89130435e-05,25.8611326 L-9.89130435e-05,27.3863606 L-9.89130435e-05,27.3913712 L2.8116692,27.3913712 L2.8116692,27.3863606 L3.46779239,27.3863606 L3.46779239,27.3913712 L6.2792308,27.3913712 L6.2792308,27.3863606 L6.93502428,27.3863606 L6.93502428,27.3913712 L9.74679239,27.3913712 L9.74679239,27.3863606 L22.1752163,27.3863606 L22.1768649,27.3890329 L28.2883721,27.3890329 C29.2221112,27.3890329 29.8086656,26.3685398 29.3483902,25.5457985" id="Fill-17" fill="#FEFEFE" mask="url(#mask-2)"></path>
                        </g>
                    </g>
                </g>
            </g>
        </g>
    </g>
</svg>