<?xml version="1.0" encoding="utf-8"?>
<!-- Generator: Adobe Illustrator 23.0.1, SVG Export Plug-In . SVG Version: 6.00 Build 0)  -->
<svg version="1.1" xmlns="http://www.w3.org/2000/svg" xmlns:xlink="http://www.w3.org/1999/xlink" x="0px" y="0px"
	 viewBox="0 0 437.7 158.8" style="enable-background:new 0 0 437.7 158.8;" xml:space="preserve">
<style type="text/css">
	.st0{fill:#FFFFFF;}
	.st1{fill:url(#SVGID_1_);}
</style>
<g>
	<g>
		<polygon class="st0" points="307.1,32.3 302,29.4 302,41.3 302,47.1 312.5,47.1 312.5,41.2 320.5,41.2 323.9,47.1 333.1,47.1 
			329.8,41.2 337.8,41.2 343,32.3 		"/>
		<polygon class="st0" points="353.5,32.3 345,47.1 355.6,47.1 358.9,41.2 367,41.2 370.4,47.1 379.6,47.1 376.2,41.2 384.1,41.2 
			384.1,32.3 		"/>
		<path class="st0" d="M369.3,94.9v-3.5h11.3V49.8H310c-2.1,0-4,1.6-4.2,3.7c0,0.2,0,0.3,0,0.5v37.4h50.4v3.5h-28.8l0.5-0.9h-13.1
			l-0.5,0.9h-7.4l-6,10.5l7.1,0l-8,13.7h13.1l8.1-13.8l35-0.1v13.8h13.1l0-13.8h14.8V94.9H369.3z M316.8,83.1v-2.8h49.9V72h-49.9
			v-2.8h49.9v-8.3h-49.9v-2.8h52.7v24.9H316.8z"/>
	</g>
</g>
<g>
	<g>
		<path class="st0" d="M275.5,94.9V71.5h10.8V60.9l0,0H231c-2.9,0-5.2,2.5-5.2,5.4v5.2h36.6v33.9H286l6-10.5H275.5z"/>
		<path class="st0" d="M292,108.6h-61c0,0-6.5,0.4-11.2-2.4V49.8H203v10.5h3.8v21.4v37.3l6.4-3.7c3,2.4,8.5,3.7,12.6,3.7H286
			L292,108.6z"/>
		<path class="st0" d="M281.3,32.4h-44.9c-2.9,0-5.2,2.3-5.2,5.2v5.2h50.1V32.4z"/>
		<polygon class="st0" points="203,29.4 212.5,46 225.7,46 216.2,29.4 		"/>
		<polygon class="st0" points="242.4,77 225.7,105.4 238.8,105.4 255.5,77 		"/>
	</g>
</g>
<path class="st0" d="M183.5,143.9L106.9,8.5c-2.6-4.6-9.1-4.6-11.7,0L83.7,28.7c-3.3,5.9-3.3,13,0,18.9l8.5,15.1
	c2.2-4.9,4.1-10.2,5.5-15.8c0.4-1.6,1.9-2.7,3.5-2.5c1.8,0.3,3,2.1,2.6,3.8c-1.9,7.8-4.7,14.9-7.8,21.2l37.5,66.2
	c2.5,4.5-0.7,10.1-5.9,10.1H80.4c-2.9,0-5.3-2.4-5.3-5.3l0-41.2l0,0l-2.2,0l0-6.6h-8.1c-2.9,0-5.3,2.4-5.3,5.3v47.8H56v-32.8H45.7
	c-2.9,0-5.3,2.4-5.3,5.3v27.5h-3.6v-20.7H26.1c-2.7,0-4.9,2.2-4.9,4.9v24.1v0l156.4,0C182.8,153.9,186.1,148.4,183.5,143.9z
	 M110.2,52.3c0,0.3-0.1,0.5-0.3,0.6c-0.3,0-0.5-0.4-0.7-1.1c-0.6-1.7-1.2-3.5-1.8-5.3c-0.7-1.9-1.3-3.8-2.2-5.6
	c-1-2.1-1.8-2.4-4-1.3c-2.8,1.4-5.5,3-8.2,4.7c-1.5,0.9-3,2-4.6,2.8c-0.2,0.1-0.1,0.1-0.4,0.2c-0.1,0.1-0.5,0-0.4-0.4
	c0.2-0.8,0.4-1.2,0.7-1.9c3-7,6.7-13.7,11-20.1c1-1.5,2.2-2.9,3.5-4.2c1.2-1.2,2.5-0.9,3.1,0.7c0.9,2.4,1.6,4.8,2,7.2
	c1.4,7.1,2.1,14,2.2,20.6C110.3,49.8,110.3,51.5,110.2,52.3z"/>
<linearGradient id="SVGID_1_" gradientUnits="userSpaceOnUse" x1="110.6847" y1="58.3449" x2="64.7202" y2="84.8825">
	<stop  offset="0" style="stop-color:#103781;stop-opacity:0"/>
	<stop  offset="1.556635e-02" style="stop-color:#153C84;stop-opacity:1.556635e-02"/>
	<stop  offset="0.228" style="stop-color:#5B76A9;stop-opacity:0.228"/>
	<stop  offset="0.4285" style="stop-color:#96A7C7;stop-opacity:0.4285"/>
	<stop  offset="0.6115" style="stop-color:#C3CDDF;stop-opacity:0.6115"/>
	<stop  offset="0.7736" style="stop-color:#E4E8F1;stop-opacity:0.7736"/>
	<stop  offset="0.9086" style="stop-color:#F8F9FB;stop-opacity:0.9086"/>
	<stop  offset="1" style="stop-color:#FFFFFF"/>
</linearGradient>
<path class="st1" d="M101.2,44.3c-1.6-0.2-3.1,0.9-3.5,2.5c-5.9,23.5-20.5,40.9-24.8,45.7l0,0l0,6.6l2.2,0c0.4-0.4,0.8-0.8,1-0.9
	c0.8-0.8,20.3-20.6,27.7-50.1C104.2,46.3,103,44.5,101.2,44.3z"/>
<polygon class="st0" points="223.2,133.6 217.6,133.6 213.1,142 208.6,133.6 203,133.6 210.3,146.5 210.3,153.2 215.9,153.2 
	215.9,146.4 "/>
<path class="st0" d="M296,153.2v-4.4h12.5c0.9,0,1.6-0.7,1.6-1.6c0-0.9-0.7-1.6-1.6-1.6H302c-3.3,0-6-2.7-6-6c0-3.3,2.7-6,6-6h12.5
	v4.4H302c-0.9,0-1.6,0.7-1.6,1.6c0,0.9,0.7,1.6,1.6,1.6h6.5c2,0,6,1.3,6,6c0,3.3-2.7,6-6,6H296z"/>
<polygon class="st0" points="257.8,133.7 246.6,153.1 256,153.1 256,149.4 254.3,149.4 257.8,143.4 263.4,153.1 263.4,153.1 
	269,153.1 "/>
<polygon class="st0" points="291.9,133.7 286.3,133.7 286.3,141.7 272.5,133.7 272.5,153.2 278,153.2 278,144.3 291.9,152.4 "/>
<path class="st0" d="M245.9,133.7h-5.6c0,0,0,9.5,0,9.8c0,2.3-1.9,4.2-4.2,4.2c-2.3,0-4.2-1.9-4.2-4.2c0-0.2,0-9.8,0-9.8h-5.6v9.8
	c0,0,0,0,0,0c0,0,0,0,0,0c0,5.4,4.4,9.8,9.7,9.8c5.4,0,9.7-4.4,9.7-9.8c0,0,0,0,0,0c0,0,0,0,0,0V133.7z"/>
<polygon class="st0" points="351.3,133.7 340.1,153.1 349.5,153.1 349.5,149.4 347.8,149.4 351.3,143.4 356.9,153.1 356.9,153.1 
	362.5,153.1 "/>
<path class="st0" d="M333.8,133.7c0,0,0,9.5,0,9.8c0,2.3-1.9,4.2-4.2,4.2s-4.2-1.9-4.2-4.2c0-0.2,0-9.8,0-9.8h-5.6v9.8
	c0,5.4,4.4,9.7,9.7,9.7s9.7-4.4,9.7-9.7v-9.8H333.8z"/>
<polygon class="st0" points="384.1,133.7 378.5,133.7 378.5,141.7 364.6,133.7 364.6,153.2 370.2,153.2 370.2,144.3 384.1,152.4 "/>
</svg>
